<svg width="192" height="32" viewBox="0 0 192 32" fill="none" xmlns="http://www.w3.org/2000/svg">
<path d="M16.3266 10.449C13.6999 9.19828 11.0118 8.56782 8.26808 8.56782C6.34572 8.56795 4.43595 8.88345 2.6123 9.50217V0H10.0701L16.3266 10.449Z" fill="#D2972F"/>
<path d="M39.8367 4.58652C38.5284 5.00692 37.1658 5.222 35.795 5.22449C33.9101 5.22449 31.9861 4.80952 30.0408 3.98533L32.3373 0H39.8221L39.8367 4.58652Z" fill="#D2972F"/>
<path d="M11.1021 28.4499V32H2.6123V29.044C4.26045 28.412 6.02641 28.0851 7.81037 28.0817C8.85427 28.0847 9.89459 28.1948 10.9123 28.4101L11.1021 28.4499Z" fill="#D2972F"/>
<path d="M26.7756 23.4601L23.5131 28.7346H19.4248L11.1113 15.6664V22.9608C8.26132 22.5376 5.34766 22.7756 2.6123 23.6552V14.717C4.26442 14.0579 6.03464 13.7172 7.82279 13.7142C12.212 13.7142 16.7992 15.7973 21.8502 20.081C23.3576 21.379 25.0094 22.5123 26.7756 23.4601Z" fill="#D2972F"/>
<path d="M39.8367 32H31.3786L31.3469 25.6267C32.6374 25.9115 33.9576 26.0561 35.2823 26.0579C36.8124 26.058 38.3354 25.86 39.8096 25.4694L39.8367 32Z" fill="#D2972F"/>
<path d="M39.8368 20.2531C38.5324 20.6778 37.1725 20.8953 35.8043 20.8979C34.3659 20.8911 32.9369 20.6591 31.5664 20.21L31.5433 15.2353L29.2129 19.2575C27.3282 18.3357 25.4273 17.0301 23.5103 15.3409L27.4567 8.48975C30.0696 9.80322 32.741 10.4662 35.4312 10.4662C36.9096 10.4673 38.3815 10.2634 39.807 9.85998L39.8368 20.2531Z" fill="#D2972F"/>
<path d="M35.7501 24.8107C31.2823 24.8107 26.8895 22.9431 22.6926 19.2591C17.4638 14.6696 12.6591 12.4396 8.00441 12.4396C5.30493 12.4396 2.61553 13.2123 0 14.7377V12.1564C0.783429 11.6557 4.01675 9.7959 8.53043 9.7959C13.2601 9.7959 17.8734 11.7739 22.2404 15.6754C26.9198 19.8556 31.5923 21.9741 36.1295 21.9752C39.0819 21.9752 41.4445 21.0832 43.102 20.2782V22.9208C42.3701 23.3556 39.6259 24.8163 35.7512 24.8163L35.7501 24.8107Z" fill="#D2972F"/>
<path d="M0.00653938 26.3468C0.76911 25.8837 3.91526 24.1632 8.30875 24.1632C9.17054 24.164 10.0309 24.2292 10.8819 24.3582C11.8442 24.5052 12.7917 24.7288 13.7143 25.0265V27.7547C12.8479 27.4233 11.9551 27.1577 11.0442 26.9605C9.97655 26.7301 8.88522 26.6125 7.7902 26.6098C5.1626 26.6098 2.54481 27.3246 0 28.7346L0.00653938 26.3468Z" fill="#D2972F"/>
<path d="M35.6174 9.1372C32.1907 9.1372 28.7799 8.0358 25.4695 5.86389V2.6123C29.0147 5.01411 32.5554 6.22759 36.0037 6.22759C39.0099 6.22759 41.4144 5.31262 43.1021 4.488V7.1986C42.3569 7.64465 39.5626 9.14292 35.6174 9.14292V9.1372Z" fill="#D2972F"/>
<path d="M55.3616 10.9962L54.8736 11.2158C54.8743 11.3897 54.921 11.5605 55.0093 11.7121L56.7856 15.5553L58.7112 11.7681C58.8135 11.6217 58.8657 11.4482 58.8606 11.2718L58.3726 11.0105L58.3589 10.7755H63.7414V10.9951C63.3993 11.0863 63.429 10.9556 63.3207 11.296V20.6985L63.7414 20.9862L63.7824 21.2212H59.9574L59.93 20.9862L60.1295 20.9566C60.2038 20.932 60.2669 20.8835 60.3085 20.8193C60.35 20.7551 60.3673 20.6791 60.3575 20.6041C60.3575 20.4866 60.3439 20.3164 60.3439 20.2253V13.8434C60.3439 13.7655 60.3575 13.5821 60.3575 13.4251L56.6556 20.9467L53.0073 13.2812V20.1243C53.0073 20.2341 52.9936 20.581 53.0347 20.6601C53.1156 20.9214 53.347 20.9214 53.55 20.9895V21.2245H50.0966V20.9895C50.368 20.9895 50.4626 20.9632 50.5435 20.7414V11.7539C50.5435 11.6891 50.5435 11.3147 50.5025 11.2576C50.4215 10.9962 50.2311 11.0094 50.0681 11.0094V10.8392H55.3342L55.3616 10.9962Z" fill="#D2972F"/>
<path d="M69.3054 10.8016V11.0192C69.0895 11.0965 68.927 10.942 68.8054 11.2129C68.7918 11.2771 68.7918 11.6481 68.7918 11.7439V15.7165C68.8054 16.2474 68.5645 17.7479 69.7008 18.3822C70.4439 18.7968 72.2415 18.7576 72.971 18.33C74.2004 17.6576 73.93 16.3497 73.93 15.5217V11.7722C73.93 11.7461 73.9027 11.3195 73.8891 11.2412C73.8891 10.9431 73.4698 11.0236 73.3619 10.9822L73.3891 10.7755H77.4968L77.4695 10.9822C77.2536 10.9822 76.9968 10.9953 76.9968 11.2923C76.9559 11.3696 76.9832 11.745 76.9832 11.8614V15.8731C76.9832 17.3747 77.0241 19.2766 74.9833 20.3767C73.0778 21.4245 69.6587 21.554 67.6998 20.467C65.6965 19.3419 65.6965 17.6728 65.6965 15.9776V11.9017C65.6965 11.2934 65.7374 11.2543 65.0886 11.0214L65.1295 10.8038L69.3054 10.8016Z" fill="#D2972F"/>
<path d="M87.9385 10.7799L87.9249 11.0413L87.613 11.1511C87.5459 11.2818 87.6267 11.5299 87.7075 11.6474L91.2812 20.3709L91.4576 20.7762C91.5931 20.9958 91.6341 20.9716 91.864 21.0375L91.8503 21.1945H88.2766L88.0057 21.2209C87.8566 21.2209 87.8293 21.2604 87.8293 21.077L88.2083 20.8157V20.6587L88.181 20.5807L88.1263 20.4709L87.5311 18.9555H82.6838L82.521 19.3607C82.4624 19.4835 82.4125 19.6101 82.3719 19.7395L82.2092 20.1316C82.1682 20.2754 82.1147 20.4061 82.0874 20.5368C82.0202 20.6938 81.9246 20.7718 82.1147 20.9288L82.3719 21.0068L82.331 21.1902H78.8027V20.9552C78.9518 20.9156 79.06 20.9156 79.1954 20.7355L79.2364 20.6257L79.2773 20.5346C79.3045 20.4476 79.3427 20.3643 79.3911 20.2864L82.8693 11.6112C82.8837 11.5209 82.9109 11.433 82.9501 11.3498L82.9911 11.2323L82.9638 11.1544L82.9501 11.0764H82.5893V10.7755L87.9385 10.7799ZM86.9882 17.2995L85.0386 12.7027L83.2244 17.2995H86.9882Z" fill="#D2972F"/>
<path d="M100.482 10.782C101.256 10.7689 103.412 10.6649 104.338 12.1229C104.934 13.073 104.959 14.4796 104.551 15.4067C104.056 16.5013 103.156 16.891 102.098 17.2938L104.178 20.3138C104.178 20.3138 104.47 20.7046 104.507 20.7429C104.735 20.9508 104.66 20.8075 104.925 20.9508L104.887 21.2245H100.926V20.9508L101.353 20.7035C101.353 20.5086 101.29 20.4692 101.112 20.235L99.0191 17.2664H97.1421V20.2733C97.1421 20.4298 97.0909 20.8074 97.3202 20.9497H97.6028V21.2234H93.899V20.9618C93.9502 20.9618 94.2029 20.9092 94.2669 20.7429C94.3053 20.6651 94.2797 20.3521 94.2797 20.2744V11.1629L93.8232 11.0327L93.836 10.7853L100.482 10.782ZM99.1887 15.1823C99.402 15.1823 101.281 15.3388 101.738 14.5704C101.835 14.4208 101.888 14.246 101.893 14.0663C101.898 13.8866 101.853 13.7092 101.763 13.5546C101.357 12.7731 99.3529 12.9559 99.3401 12.9559H97.1464V15.1823H99.1887Z" fill="#D2972F"/>
<path d="M117.49 12.7453C118.578 13.9758 118.841 16.1535 118.5 17.384C117.988 19.1264 116.769 20.2934 114.816 20.9087C113.085 21.4345 109.952 21.4345 108.025 19.8839C106.382 18.5758 106.111 16.897 106.272 15.4876C106.456 13.8346 107.124 12.4759 109.09 11.4888C109.782 11.1477 110.527 10.9226 111.295 10.8229C112.775 10.6559 115.812 10.8488 117.49 12.7453ZM110.569 18.3484C111.643 19.0273 113.269 18.9637 114.186 18.5402C115.235 18.0661 115.655 17.3097 115.773 16.4003C115.883 15.5673 115.694 14.5684 114.737 13.8249C113.766 13.0556 112.076 13.0437 111.17 13.3508C109.794 13.8249 109.269 14.799 109.244 15.9369C109.23 16.4167 109.346 16.8915 109.579 17.314C109.812 17.7365 110.154 18.0921 110.571 18.3452L110.569 18.3484Z" fill="#D2972F"/>
<path d="M129.718 10.8051V11.0395C129.605 11.0395 129.353 11.079 129.239 11.3003C129.188 11.3649 129.188 11.7954 129.188 11.8601V14.5704H134.156V11.2488L133.626 11.0297V10.7755H137.549V10.9585L137.044 11.1535C137.005 11.3505 136.992 11.5521 137.006 11.7527V20.2079C137.006 20.3174 137.044 20.6121 137.112 20.703C137.218 21.0032 137.402 20.886 137.578 20.9506V21.2245H133.703V20.9638C133.855 20.9243 134.044 20.9901 134.157 20.6899C134.195 20.6252 134.195 20.2517 134.195 20.1553V19.8682C134.195 19.6338 134.157 19.3994 134.157 19.1518V16.9104H129.24V19.1014C129.24 19.2581 129.253 19.4531 129.253 19.636V20.209C129.253 20.3185 129.24 20.6647 129.291 20.7688C129.468 21.0295 129.619 20.9254 129.808 20.9638L129.796 21.2245H125.886L125.924 20.9638C126.03 20.9638 126.328 20.9243 126.39 20.703V11.2816L125.823 11.0341L125.861 10.7996L129.718 10.8051Z" fill="#D2972F"/>
<path d="M150.143 12.7448C151.231 13.9754 151.494 16.1532 151.153 17.3838C150.642 19.1263 149.423 20.2933 147.469 20.9087C145.739 21.4345 142.606 21.4345 140.68 19.8839C139.041 18.5767 138.766 16.8978 138.923 15.4883C139.107 13.8353 139.775 12.4764 141.741 11.4894C142.433 11.1482 143.178 10.9231 143.946 10.8234C145.424 10.6553 148.465 10.8482 150.143 12.7448ZM143.223 18.3483C144.297 19.0272 145.923 18.9636 146.84 18.5401C147.888 18.0659 148.308 17.3095 148.426 16.4C148.536 15.567 148.348 14.5681 147.39 13.8245C146.42 13.0551 144.729 13.0433 143.824 13.3504C142.448 13.8245 141.923 14.7987 141.898 15.9366C141.884 16.4161 141.999 16.8907 142.231 17.3132C142.464 17.7357 142.805 18.0915 143.221 18.345L143.223 18.3483Z" fill="#D2972F"/>
<path d="M157.466 10.8016V11.0192C157.25 11.0965 157.088 10.942 156.966 11.2129C156.953 11.2771 156.953 11.6481 156.953 11.7439V15.7165C156.966 16.2474 156.725 17.7479 157.862 18.3822C158.605 18.7968 160.403 18.7576 161.133 18.33C162.363 17.6576 162.092 16.3497 162.092 15.5217V11.7722C162.092 11.7461 162.065 11.3195 162.051 11.2412C162.051 10.9431 161.632 11.0236 161.524 10.9822L161.551 10.7755H165.66L165.633 10.9822C165.417 10.9822 165.16 10.9953 165.16 11.2923C165.119 11.3696 165.146 11.745 165.146 11.8614V15.8731C165.146 17.3747 165.187 19.2766 163.146 20.3767C161.24 21.4245 157.82 21.554 155.86 20.467C153.86 19.3408 153.86 17.6717 153.86 15.9765V11.9017C153.86 11.2934 153.901 11.2543 153.252 11.0214L153.293 10.8038L157.466 10.8016Z" fill="#D2972F"/>
<path d="M178.476 10.8332L177.076 13.5993L176.874 13.5191C176.834 13.089 176.901 13.0675 176.443 12.8744C176.196 12.7801 175.945 12.6995 175.689 12.6328C175.182 12.4884 174.664 12.3809 174.141 12.3111C173.441 12.2174 171.059 11.9622 170.426 12.7943C170.264 13.0201 170.2 13.2109 170.305 13.4118C170.547 13.8815 172.028 14.0294 172.297 14.043L174.531 14.3117C175.824 14.4731 177.951 14.6504 178.556 16.4567C178.746 17.0168 178.773 17.6188 178.635 18.1935C178.496 18.7683 178.199 19.2925 177.775 19.706C175.42 22.0769 170.386 21.1556 167.976 20.3777L167.478 20.2569L167.181 20.5663L166.966 20.4861L168.438 16.8474L168.613 16.9411C168.572 17.3837 168.478 17.492 168.99 17.8815C170.122 18.7136 173.122 19.05 174.684 18.6199C175.196 18.472 175.653 18.271 175.828 17.8409C175.874 17.742 175.892 17.6332 175.883 17.525C175.873 17.4167 175.836 17.3128 175.774 17.2233C175.478 16.8067 173.903 16.713 173.782 16.6859L171.925 16.4974C171.091 16.4172 168.318 16.2151 167.631 14.4302C167.308 13.6117 167.442 12.4838 168.169 11.6506C170.175 9.39263 174.388 10.1739 176.432 10.6436L177.307 10.8852C177.461 10.9259 177.618 10.9528 177.777 10.9653H177.891L178.012 10.9111C178.097 10.8308 178.187 10.7554 178.281 10.6853L178.476 10.8332Z" fill="#D2972F"/>
<path d="M191.129 10.1405V13.637L190.865 13.6235C190.858 13.5149 190.82 13.4102 190.757 13.3204C190.693 13.2306 190.605 13.1592 190.502 13.1137C190.363 13.0471 190.056 13.0731 189.916 13.0731H183.812V14.7897H187.338C187.455 14.7897 187.807 14.8033 187.896 14.7627C188.161 14.6826 188.217 14.6284 188.3 14.3205H188.523V17.5125H188.297C188.18 17.3242 188.228 17.1741 187.976 17.0614C187.906 17.0207 187.507 17.0208 187.418 17.0208H183.808V18.9258H189.969C190.652 18.9258 190.638 19.0465 190.931 18.3088L191.127 18.3494V21.8775L190.862 21.811C190.862 21.7598 190.852 21.7091 190.832 21.6617C190.812 21.6144 190.782 21.5714 190.744 21.5352C190.707 21.499 190.662 21.4703 190.613 21.4509C190.564 21.4314 190.511 21.4216 190.458 21.4219C190.332 21.3813 190.039 21.4489 189.886 21.4489H180.074V21.2076C180.256 21.167 180.436 21.2482 180.543 20.9527C180.585 20.8726 180.557 20.4834 180.557 20.4293V11.1466L180.027 10.9582V10.6864H189.964C190.034 10.6864 190.494 10.7135 190.563 10.6729C190.925 10.5251 190.798 10.3638 190.884 10.1224L191.129 10.1405Z" fill="#D2972F"/>
</svg>
